<svg xmlns="http://www.w3.org/2000/svg" width="412" height="308" viewBox="0 0 412 308" version="1.1"><path d="M 101 71.102 C 80.720 74.181, 65.071 83.913, 58.076 97.797 C 53.437 107.005, 53.805 123.556, 58.892 134.500 C 65.836 149.440, 76.061 155.368, 108 162.970 C 141.696 170.991, 147.154 172.995, 152.791 179.414 C 158.033 185.385, 158.326 193.887, 153.539 201.120 C 148.775 208.319, 138.112 211.970, 121.799 211.988 C 99.940 212.012, 88.328 206.511, 82.260 193.256 C 79.452 187.124, 79.799 187.193, 65.500 189.896 C 60 190.936, 53.813 192.080, 51.750 192.438 C 46.770 193.304, 46.822 195.415, 52.081 205.923 C 57.586 216.921, 64.163 223.503, 75 228.862 C 98.874 240.667, 140.702 240.750, 165.723 229.042 C 191.665 216.903, 198.967 180.110, 179.593 159.155 C 171.360 150.249, 161.297 146.064, 131.060 138.971 C 119.202 136.189, 107.475 133.174, 105 132.272 C 90.819 127.102, 84.657 116.470, 89.894 106.210 C 92.328 101.441, 94.430 99.591, 100.537 96.843 C 104.832 94.911, 107.250 94.605, 118.500 94.570 C 130.552 94.533, 131.920 94.726, 137.260 97.214 C 143.895 100.306, 148.398 104.691, 151.158 110.750 C 152.411 113.501, 153.740 115, 154.928 115 C 155.936 115, 162.719 114.100, 170 113 C 177.281 111.900, 183.908 111, 184.728 111 C 186.732 111, 185.853 107.519, 181.511 98.270 C 172.414 78.890, 156.420 71.157, 124 70.467 C 114.925 70.273, 104.575 70.559, 101 71.102 M 216 154 L 216 236 232.987 236 L 249.975 236 250.237 200.250 L 250.500 164.500 286.250 164.237 L 322 163.975 322.014 197.737 C 322.021 216.307, 322.301 232.523, 322.636 233.774 C 323.243 236.037, 323.319 236.046, 339.873 235.774 L 356.500 235.500 356.777 153.726 L 357.053 71.953 339.777 72.226 L 322.500 72.500 322.236 104.263 L 321.972 136.025 286.236 135.763 L 250.500 135.500 250.236 103.750 L 249.972 72 232.986 72 L 216 72 216 154" stroke="none" fill="#eae9e5" fill-rule="evenodd"/><path d="M 19.057 2.059 C 11.849 5.330, 6.431 10.450, 3.076 17.165 L 0 23.319 0 153.977 L 0 284.634 3.013 290.526 C 6.933 298.191, 10.111 301.400, 17.375 305.030 L 23.319 308 205.722 308 L 388.124 308 393.700 305.362 C 400.916 301.948, 406.292 296.494, 410.015 288.808 L 413 282.646 413 152.156 C 413 80.387, 412.726 21.941, 412.391 22.275 C 412.056 22.610, 410.447 20.213, 408.816 16.947 C 405.574 10.459, 400.061 5.288, 392.943 2.059 C 388.541 0.062, 386.827 0.044, 206 0.044 C 25.173 0.044, 23.459 0.062, 19.057 2.059 M 0.485 154 C 0.485 226.325, 0.604 255.913, 0.750 219.750 C 0.895 183.588, 0.895 124.413, 0.750 88.250 C 0.604 52.088, 0.485 81.675, 0.485 154 M 101 71.102 C 80.720 74.181, 65.071 83.913, 58.076 97.797 C 53.437 107.005, 53.805 123.556, 58.892 134.500 C 65.836 149.440, 76.061 155.368, 108 162.970 C 141.696 170.991, 147.154 172.995, 152.791 179.414 C 158.033 185.385, 158.326 193.887, 153.539 201.120 C 148.775 208.319, 138.112 211.970, 121.799 211.988 C 99.940 212.012, 88.328 206.511, 82.260 193.256 C 79.452 187.124, 79.799 187.193, 65.500 189.896 C 60 190.936, 53.813 192.080, 51.750 192.438 C 46.770 193.304, 46.822 195.415, 52.081 205.923 C 57.586 216.921, 64.163 223.503, 75 228.862 C 98.874 240.667, 140.702 240.750, 165.723 229.042 C 191.665 216.903, 198.967 180.110, 179.593 159.155 C 171.360 150.249, 161.297 146.064, 131.060 138.971 C 119.202 136.189, 107.475 133.174, 105 132.272 C 90.819 127.102, 84.657 116.470, 89.894 106.210 C 92.328 101.441, 94.430 99.591, 100.537 96.843 C 104.832 94.911, 107.250 94.605, 118.500 94.570 C 130.552 94.533, 131.920 94.726, 137.260 97.214 C 143.895 100.306, 148.398 104.691, 151.158 110.750 C 152.411 113.501, 153.740 115, 154.928 115 C 155.936 115, 162.719 114.100, 170 113 C 177.281 111.900, 183.908 111, 184.728 111 C 186.732 111, 185.853 107.519, 181.511 98.270 C 172.414 78.890, 156.420 71.157, 124 70.467 C 114.925 70.273, 104.575 70.559, 101 71.102 M 216 154 L 216 236 232.987 236 L 249.975 236 250.237 200.250 L 250.500 164.500 286.250 164.237 L 322 163.975 322.014 197.737 C 322.021 216.307, 322.301 232.523, 322.636 233.774 C 323.243 236.037, 323.319 236.046, 339.873 235.774 L 356.500 235.500 356.777 153.726 L 357.053 71.953 339.777 72.226 L 322.500 72.500 322.236 104.263 L 321.972 136.025 286.236 135.763 L 250.500 135.500 250.236 103.750 L 249.972 72 232.986 72 L 216 72 216 154" stroke="none" fill="#9a1d83" fill-rule="evenodd"/></svg>
